<?xml version="1.0" standalone="no"?>
<!DOCTYPE svg PUBLIC "-//W3C//DTD SVG 20010904//EN"
 "http://www.w3.org/TR/2001/REC-SVG-20010904/DTD/svg10.dtd">
<svg version="1.0" xmlns="http://www.w3.org/2000/svg"
 width="300.000000pt" height="300.000000pt" viewBox="0 0 300.000000 300.000000"
 preserveAspectRatio="xMidYMid meet">
<metadata>
Created by potrace 1.11, written by Peter Selinger 2001-2013
</metadata>
<g transform="translate(0.000000,300.000000) scale(0.100000,-0.100000)"
fill="#000000" stroke="none">
<path d="M1368 2905 c-2 -2 -28 -6 -58 -9 -137 -15 -338 -80 -470 -153 -61
-33 -169 -101 -180 -113 -3 -3 -27 -23 -54 -44 -155 -125 -294 -304 -381 -490
-38 -82 -81 -199 -88 -242 -3 -16 -10 -44 -16 -62 -16 -54 -26 -160 -26 -297
0 -158 8 -225 40 -348 134 -518 537 -911 1057 -1032 108 -25 168 -30 333 -29
153 1 195 7 377 49 10 2 59 20 110 40 324 129 562 337 732 641 117 209 168
409 170 659 1 198 -8 266 -55 430 -75 256 -236 498 -451 678 -59 49 -91 72
-169 122 -74 46 -285 140 -342 151 -10 2 -26 5 -35 8 -82 25 -241 43 -369 44
-67 0 -123 -2 -125 -3z"/>
</g>
</svg>
